<?xml version="1.0" encoding="UTF-8"?><!DOCTYPE svg PUBLIC "-//W3C//DTD SVG 1.0//EN" "http://www.w3.org/TR/2001/REC-SVG-20010904/DTD/svg10.dtd"><svg xmlns="http://www.w3.org/2000/svg" xmlns:xlink="http://www.w3.org/1999/xlink" height="110px" version="1.0" viewBox="0 0 110 110" width="110px" xml:space="preserve"><g id="Multicolor"><circle cx="55" cy="55" r="55" fill="#E04F5F"/><path d="M87 50c0 17.673-24 37-32 37S23 67.673 23 50s14.327-27 32-27 32 9.327 32 27z" fill="#E2E4E5"/><path d="M59 67s-4-20 20-20c0 0 2 20-20 20z" fill="#3E3E3F"/><path d="M23 50c0 17.67 24 37 32 37V23c-17.68 0-32 9.33-32 27zm28 17c-22 0-20-20-20-20 24 0 20 20 20 20z" fill="#FFF"/><path d="M51 67c-22 0-20-20-20-20 24 0 20 20 20 20z" fill="#3E3E3F"/></g><metadata><rdf:RDF xmlns:rdf="http://www.w3.org/1999/02/22-rdf-syntax-ns#" xmlns:rdfs="http://www.w3.org/2000/01/rdf-schema#" xmlns:dc="http://purl.org/dc/elements/1.1/"><rdf:Description about="https://iconscout.com/legal#licenses" dc:title="alien" dc:description="alien" dc:publisher="Iconscout" dc:date="2017-09-19" dc:format="image/svg+xml" dc:language="en"><dc:creator><rdf:Bag><rdf:li>Vincent Le Moign</rdf:li></rdf:Bag></dc:creator></rdf:Description></rdf:RDF></metadata></svg>